<?xml version="1.0"?>
<svg xmlns="http://www.w3.org/2000/svg" version="1.2" baseProfile="tiny"  viewBox="0 0 800 588" stroke-linecap="round" stroke-linejoin="round">
<g id="syr_admin1">
  <path id="Al-Hasakah" d="M 669.41 211.85 605.99 197.27 528.78 141.82 504.59 112.04 458.44 69.02 498.38 62.73 609.49 19.55 694.51 24.4 750.58 14.94 779.62 1 799 25.86 733.21 81.9 683.91 90.21 665.8 145.57 681.91 195.73 669.41 211.85 Z" fill="#2b5fd8" stroke="#ffffff" stroke-width="3"/>
  <path id="Aleppo" d="M 356.79 61.02 364.51 75.15 355.3 118.67 341.23 127.89 304.79 118.79 288.13 142.36 318.08 223.5 221.38 214.33 185.95 205.67 178.58 176.11 161.29 175 123.3 114.13 109.58 92.78 123.21 53.16 216.93 76.58 304.34 44.68 356.79 61.02 Z" fill="#2b5fd8" stroke="#ffffff" stroke-width="3"/>
  <path id="Ar-Raqqah" d="M 458.44 69.02 504.59 112.04 476.6 178.55 427.81 237.38 332.95 223.36 318.08 223.5 288.13 142.36 304.79 118.79 341.23 127.89 355.3 118.67 364.51 75.15 356.79 61.02 425.73 73.41 458.44 69.02 Z" fill="#2b5fd8" stroke="#ffffff" stroke-width="3"/>
  <path id="As-Suwayda" d="M 217.31 546.4 142.89 587.49 103.31 582.15 108.46 570.11 88.68 513.53 111.86 485.08 195.13 507.24 217.31 546.4 Z" fill="#2b5fd8" stroke="#ffffff" stroke-width="3"/>
  <path id="Damascus" d="M 148.9 418.3 L 138.35 405.25 L 119.65 405.0 L 104.8 412.2 L 91.95 411.85 L 75.0 421.9 L 76.75 431.1 L 83.8 430.1 L 90.95 444.2 L 80.25 449.9 L 77.4 454.4 L 80.45 457.25 L 96.25 450.4 L 117.25 461.0 L 121.5 456.95 L 123.45 457.15 L 123.85 458.65 L 125.45 458.25 L 126.45 460.15 L 128.8 459.35 L 129.5 457.8 L 128.9 455.4 L 130.75 456.45 L 131.9 455.85 L 131.75 453.5 L 132.85 452.7 L 129.95 450.75 L 129.45 448.55 L 140.1 437.95 L 143.05 430.35 L 147.0 428.85 L 146.9 427.8 L 145.45 427.25 L 145.35 421.85 L 146.65 421.85 L 146.6 420.25 Z" fill="#2b5fd8" stroke="#ffffff" stroke-width="3"/>
  <path id="Rural_Damascus" fill-rule="evenodd" d="M 413.67 443.85 217.31 546.4 195.13 507.24 111.86 485.08 42.95 487.91 22.39 464.36 51.24 437.46 36.11 429.99 73.1 405.85 115.19 362.15 138.1 359.91 163.1 377.87 163.51 395.56 233.55 390.73 239.93 399.16 390.99 416.87 413.67 443.85 Z M 146.6 420.25 L 146.65 421.85 L 145.35 421.85 L 145.45 427.25 L 146.9 427.8 L 147.0 428.85 L 143.05 430.35 L 140.1 437.95 L 129.45 448.55 L 129.95 450.75 L 132.85 452.7 L 131.75 453.5 L 131.9 455.85 L 130.75 456.45 L 128.9 455.4 L 129.5 457.8 L 128.8 459.35 L 126.45 460.15 L 125.45 458.25 L 123.85 458.65 L 123.45 457.15 L 121.5 456.95 L 117.25 461.0 L 96.25 450.4 L 80.45 457.25 L 77.4 454.4 L 80.25 449.9 L 90.95 444.2 L 83.8 430.1 L 76.75 431.1 L 75.0 421.9 L 91.95 411.85 L 104.8 412.2 L 119.65 405.0 L 138.35 405.25 L 148.9 418.3 Z" fill="#2b5fd8" stroke="#ffffff" stroke-width="3"/>
  <path id="Daraa" d="M 111.86 485.08 88.68 513.53 108.46 570.11 103.31 582.15 48.09 547.12 14.27 538.35 43.88 514.07 42.95 487.91 111.86 485.08 Z" fill="#2b5fd8" stroke="#ffffff" stroke-width="3"/>
  <path id="Deir_ez-zor" d="M 669.41 211.85 661.08 254.61 663.02 296.58 636.76 338.83 548.4 380.42 448.08 251.04 427.81 237.38 476.6 178.55 504.59 112.04 528.78 141.82 605.99 197.27 669.41 211.85 Z" fill="#2b5fd8" stroke="#ffffff" stroke-width="3"/>
  <path id="Hama" d="M 185.95 205.67 221.38 214.33 318.08 223.5 332.95 223.36 319.6 262.93 287.41 284.2 257.83 257.9 226.74 277.72 204.52 272.87 164.15 286.17 151.65 272.89 84.71 287.17 77.73 280.35 70.96 240.22 71.32 181.36 119.8 223.5 171.85 221.67 185.95 205.67 Z" fill="#2b5fd8" stroke="#ffffff" stroke-width="3"/>
  <path id="Homs" d="M 427.81 237.38 448.08 251.04 548.4 380.42 413.67 443.85 390.99 416.87 239.93 399.16 233.55 390.73 163.51 395.56 163.1 377.87 138.1 359.91 115.19 362.15 97.77 318.68 58.06 313.04 77.73 280.35 84.71 287.17 151.65 272.89 164.15 286.17 204.52 272.87 226.74 277.72 257.83 257.9 287.41 284.2 319.6 262.93 332.95 223.36 427.81 237.38 Z" fill="#2b5fd8" stroke="#ffffff" stroke-width="3"/>
  <path id="Idlib" d="M 185.95 205.67 171.85 221.67 119.8 223.5 71.32 181.36 62.5 173.28 87.75 152.64 91.88 125.26 123.3 114.13 161.29 175 178.58 176.11 185.95 205.67 Z" fill="#2b5fd8" stroke="#ffffff" stroke-width="3"/>
  <path id="Latakia" d="M 62.5 173.28 71.32 181.36 70.96 240.22 37.88 238.2 17.04 209.75 32.99 161.55 62.5 173.28 Z" fill="#2b5fd8" stroke="#ffffff" stroke-width="3"/>
  <path id="Quneitra" d="M 42.95 487.91 43.88 514.07 14.27 538.35 1 543.76 6.41 477.42 22.39 464.36 42.95 487.91 Z" fill="#2b5fd8" stroke="#ffffff" stroke-width="3"/>
  <path id="Tartus" d="M 70.96 240.22 77.73 280.35 58.06 313.04 41.92 312.38 30.05 280.92 37.88 238.2 70.96 240.22 Z" fill="#2b5fd8" stroke="#ffffff" stroke-width="3"/>
</g>
</svg>